<?xml version="1.0" encoding="utf-8"?>
<!-- Generator: Adobe Illustrator 21.1.0, SVG Export Plug-In . SVG Version: 6.00 Build 0)  -->
<svg version="1.1" id="Layer_1" xmlns="http://www.w3.org/2000/svg" xmlns:xlink="http://www.w3.org/1999/xlink" x="0px" y="0px"
	 viewBox="0 0 1109 386" style="enable-background:new 0 0 1109 386;" xml:space="preserve">
<style type="text/css">
	.st0{fill:url(#SVGID_1_);stroke:#4A5B1F;stroke-width:2;stroke-miterlimit:10;}
	.st1{fill:#736F74;}
	.st2{fill:#A0C13B;}
	.st3{fill:#4A5B1F;}
	.st4{fill:url(#SVGID_2_);stroke:#4A5B1F;stroke-width:2;stroke-miterlimit:10;}
</style>
<linearGradient id="SVGID_1_" gradientUnits="userSpaceOnUse" x1="145.5813" y1="192.9537" x2="145.5813" y2="6.2387">
	<stop  offset="0" style="stop-color:#A0C13B"/>
	<stop  offset="0.5" style="stop-color:#4A5B1F"/>
	<stop  offset="0.5" style="stop-color:#A0C13B"/>
	<stop  offset="1" style="stop-color:#4A5B1F"/>
</linearGradient>
<path class="st0" d="M194.7,70.2c10.7-9.7,57.9-49.3,68.8-55.1c6.6-1.8,13-2.5,16.8-3l1.5-5.3c-8.6,0.5-20.3,1-27.7,1
	c-9.9,0-27.9-0.5-38.6-1l1,5.3c5.6,0.8,13,2,18.8,3.6c-7.4,12.4-65,61.7-81.5,76.2V84c0-20.8,0.3-60.2,1.3-68.3
	c5.8-1,22.9-3,25.9-3.6l0-0.1c0.4,0,0.7-0.1,1-0.1l0.8-5.3l-54.9-0.3c-9.9,0-20.8,0-31.4,0.6c-0.4,0-0.7,0-0.9-0.1l0,0.1
	c-15,0.8-29.4,2.5-39.4,6.5c-13.5,5.3-21.8,15-21.8,29c0,16,16.3,37.1,35.8,48c-2.8,6.4-43.7,72.9-70.1,100.9l11.2,1.8
	c17.8-8.1,85.4-86.1,89.4-91.5c9.4,0.7,19.6,1.5,24.1,1.5c-0.1,33-0.5,62.9-1.2,74c-4.7,1.3-26.8,4.2-27,4.2l-1,5.3
	c7.4-0.5,31.5-1,43.4-1c13.7,0,40.6,0.5,45.5,1l-0.5-5.3c-0.5-0.1-14.8-1.8-22.6-3c-2.6-0.5-4.8-1.1-6.4-1.8c-1-9.4-1.3-45-1.3-67.1
	v-6.1c3.3-3,11.2-9.7,16-13.2c7.1,7.6,92.7,95.3,112.5,102.9l8.6-2.8C277.8,177.9,204.6,86,194.7,70.2z M94.2,90.3
	c-10.9-4.1-29-15.8-29-40.9c0-14.7,12-32.2,46.7-35.5c4.6,0.6,9,1.3,11.7,1.7c0.8,6.9,1.3,42.2,1.3,66v13.5
	C115.8,95.1,105,94.3,94.2,90.3z"/>
<g>
	<path class="st1" d="M396.8,43.6c0-19.9,0-23.5-0.3-27.6c-0.3-4.3-1.3-6.4-5.5-7.3c-1-0.3-3.2-0.4-4.3-0.4c-0.5,0-1-0.3-1-0.8
		c0-0.8,0.6-1,2-1c5.8,0,13.8,0.4,14.4,0.4c1.4,0,11.1-0.4,15.1-0.4c8.1,0,16.6,0.8,23.4,5.6c3.2,2.3,8.8,8.6,8.8,17.4
		c0,9.5-4,18.9-15.5,29.5c10.5,13.4,19.2,24.8,26.6,32.7c6.9,7.3,12.4,8.7,15.6,9.2c2.4,0.4,4.2,0.4,5,0.4c0.6,0,1.2,0.4,1.2,0.8
		c0,0.8-0.8,1-3.1,1h-9.1c-7.2,0-10.4-0.6-13.7-2.4c-5.5-2.9-10-9.2-17.3-18.8c-5.4-7-11.4-15.6-13.9-18.9c-0.5-0.5-0.9-0.8-1.7-0.8
		L407.9,62c-0.6,0-0.9,0.4-0.9,1V66c0,12.3,0,22.4,0.6,27.7c0.4,3.7,1.1,6.5,5,7c1.8,0.3,4.6,0.5,5.8,0.5c0.8,0,1,0.4,1,0.8
		c0,0.6-0.6,1-2,1c-7,0-15.1-0.4-15.7-0.4c-0.1,0-8.2,0.4-12,0.4c-1.4,0-2-0.3-2-1c0-0.4,0.3-0.8,1-0.8c1.2,0,2.7-0.3,3.8-0.5
		c2.6-0.5,3.2-3.3,3.7-7c0.6-5.4,0.6-15.5,0.6-27.7V43.6z M407,54.7c0,0.6,0.3,1.2,0.9,1.5c1.9,1.2,7.8,2,13.4,2
		c3.1,0,6.6-0.4,9.6-2.4c4.5-3.1,7.8-10,7.8-19.7c0-16-8.4-25.6-22.1-25.6c-3.8,0-7.3,0.4-8.6,0.8c-0.6,0.3-1,0.8-1,1.5V54.7z"/>
	<path class="st1" d="M487.2,52.4c0-16.9,0-19.9-0.3-23.4c-0.3-3.5-1-5.4-3.7-5.9c-1.3-0.3-2.2-0.3-2.9-0.4
		c-0.9-0.1-1.4-0.4-1.4-0.9c0-0.6,0.5-0.9,1.9-0.9c4,0,11.2,0.4,11.6,0.4c0.5,0,7.9-0.4,11.5-0.4c1.3,0,1.9,0.3,1.9,0.9
		c0,0.5-0.4,0.8-1.4,0.9c-0.8,0.1-1.4,0.1-2.3,0.3c-3.7,0.5-4.1,2.4-4.3,6.1c-0.3,3.5-0.1,6.4-0.1,23.3v19.2
		c0,9.8-0.1,18.8,0.5,23.4c0.5,3.7,1,5.1,4.3,5.9c1.7,0.4,4.3,0.5,4.9,0.5c1.2,0.1,1.4,0.4,1.4,0.9c0,0.5-0.5,0.9-1.8,0.9
		c-6.5,0-13.9-0.4-14.6-0.4c-0.4,0-7.9,0.4-11.5,0.4c-1.2,0-2-0.3-2-0.9c0-0.5,0.5-0.9,1.7-0.9c0.6,0,2-0.1,3.1-0.4
		c2.2-0.5,2.6-3.1,2.9-6.1c0.6-4.6,0.6-13.7,0.6-23.3V52.4z"/>
	<path class="st1" d="M543,71.9c-0.6,0-1,0.4-1.3,1l-5.6,16c-1.3,3.6-2.2,7-2.2,9.1c0,2.3,1.4,3.3,4.2,3.3c0.4,0,0.5,0,0.9,0
		c1.2,0,1.5,0.4,1.5,0.9c0,0.6-1,0.9-1.9,0.9c-2.8,0-8.7-0.4-10.1-0.4c-1.3,0-6.9,0.4-12.3,0.4c-1.4,0-2-0.3-2-0.9
		c0-0.5,0.5-0.9,1.5-0.9c0.6,0,1.8,0,2.6-0.1c5.5-0.5,7.7-4.7,9.8-10.1l25.6-67.3c1.4-3.7,1.8-4.3,2.7-4.3c0.6,0,1.1,0.5,2.6,4.1
		c1.8,4.2,19.2,48.8,25.9,64.8c4.2,10.1,7.9,11.8,9.7,12.4c1.7,0.6,3.5,0.6,4.3,0.6c0.9,0,1.5,0.3,1.5,0.9c0,0.6-0.5,0.9-1.9,0.9
		c-1.3,0-10.9,0-19.4-0.3c-2.4-0.1-3.2-0.3-3.2-0.9c0-0.4,0.4-0.8,0.9-0.9c0.5-0.3,1.3-0.9,0.5-2.8l-10.1-25.7
		c-0.3-0.4-0.5-0.6-1-0.6H543z M564.7,67.4c0.5,0,0.5-0.4,0.4-0.8L555,38.4c-0.6-1.8-0.8-1.8-1.4,0L544,66.7c-0.3,0.5,0,0.8,0.3,0.8
		H564.7z"/>
	<path class="st1" d="M611.9,52.4c0-16.9,0-20.1-0.3-23.4c-0.3-3.5-1.3-5.2-5-6c-0.8-0.1-2.7-0.3-3.7-0.3c-0.6,0-1.3-0.4-1.3-0.8
		c0-0.8,0.8-1,1.9-1c5.2,0,13.3,0.4,13.7,0.4c0.9,0,7.5-0.4,14.7-0.4c11.2,0,32.2-1.2,45.8,12.5c5.6,5.6,10.9,14.6,10.9,27.5
		c0,13.5-5.9,24.2-12.1,30.5c-5,5-14.7,12.5-34.1,12.5c-4.9,0-11.1-0.3-16-0.6c-4.9-0.3-8.8-0.6-9.2-0.6c-0.3,0-1.9,0-4.3,0.1
		c-2.4,0-5.5,0.3-7.4,0.3c-1.2,0-1.8-0.3-1.8-0.9c0-0.4,0.4-0.9,1.4-0.9c1,0,1.9-0.1,2.9-0.4c2.2-0.4,2.9-3.1,3.3-5.9
		c0.8-4.7,0.6-13.4,0.6-23.8V52.4z M622.3,63.2c0,11.5,0.1,21.5,0.1,23.4c0.1,4,0.4,7.4,1.3,8.6c1.4,2.2,5.5,4.9,18.8,4.9
		c10.5,0,19.9-3.3,26.6-10c5.6-5.6,8.3-15.2,8.3-25.4c0-14.4-6.6-23.3-11-27.5C655.6,26.3,643,25,630.4,25c-1.8,0-5.8,0.4-6.5,0.9
		c-1,0.5-1.4,1-1.4,2.2c-0.1,3.7-0.1,14.6-0.1,22.2V63.2z"/>
	<path class="st2" d="M724.3,51.7c4-3.8,21.3-22.1,29.1-30.2c7.7-7.9,8.2-9.2,8.2-10.7c0-1-0.6-2-1.7-2.4c-0.9-0.4-1.2-0.6-1.2-1.2
		c0-0.5,0.8-0.8,1.9-0.8c3.7,0,3.3,0.4,7.7,0.4c4,0,11.5-0.4,13.5-0.4c1.8,0,2.2,0.4,2.2,0.9s-0.3,0.8-1.4,0.9
		c-2.4,0.3-4.7,0.8-6.5,1.5c-3.2,1.3-5.6,2.8-13.3,10.2c-11.2,10.9-25.8,25.3-29.1,29c8.1,8.8,31.3,32.5,37.3,38.1
		c10.5,9.8,15,12.7,21.1,13.8c1.2,0.3,2.4,0.4,3.7,0.4c1,0,1.8,0.3,1.8,0.9c0,0.6-0.5,0.9-1.9,0.9h-9.5c-11.1,0-14.1-1.4-20.1-6.1
		c-7.7-6-30.7-30.7-41.9-44.1V66c0,12.3,0,22.4,0.6,27.7c0.4,3.7,1.1,6.5,5,7c1.8,0.3,4.3,0.5,5.1,0.5c1.2,0,1.5,0.5,1.5,0.9
		c0,0.6-0.5,0.9-1.9,0.9c-7,0-15.1-0.4-15.7-0.4c-0.6,0-8.2,0.4-12,0.4c-1.4,0-2-0.1-2-0.9c0-0.4,0.3-0.9,1.4-0.9
		c0.8,0,2.2-0.1,3.3-0.4c2.6-0.5,3.3-3.4,3.8-7.2c0.6-5.4,0.6-15.5,0.6-27.7V43.6c0-19.9,0-23.5-0.3-27.6c-0.3-4.3-1.5-6.5-4.3-7.2
		c-1.4-0.4-3.7-0.5-4.6-0.5c-1,0-1.4-0.3-1.4-0.8c0-0.8,0.6-1,2-1c4.2,0,12.8,0.4,13.4,0.4c0.6,0,8.7-0.4,12.5-0.4
		c1.4,0,2,0.3,2,0.9c0,0.5-0.3,0.8-1.4,0.9c-1.4,0.1-1.5,0.1-2.8,0.3c-3.5,0.4-4.5,2.9-4.7,7.4c-0.3,4.1-0.3,7.7-0.3,27.6V51.7z"/>
	<path class="st2" d="M810.6,52.4c0-16.9,0-19.9-0.3-23.4s-1-5.4-3.7-5.9c-1.3-0.3-2.2-0.3-2.9-0.4c-0.9-0.1-1.4-0.4-1.4-0.9
		c0-0.6,0.5-0.9,1.9-0.9c4,0,11.2,0.4,11.6,0.4c0.5,0,7.9-0.4,11.5-0.4c1.3,0,1.9,0.3,1.9,0.9c0,0.5-0.4,0.8-1.4,0.9
		c-0.8,0.1-1.4,0.1-2.3,0.3c-3.7,0.5-4.1,2.4-4.3,6.1c-0.3,3.5-0.1,6.4-0.1,23.3v19.2c0,9.8-0.1,18.8,0.5,23.4
		c0.5,3.7,1,5.1,4.3,5.9c1.7,0.4,4.3,0.5,4.9,0.5c1.2,0.1,1.4,0.4,1.4,0.9c0,0.5-0.5,0.9-1.8,0.9c-6.5,0-13.9-0.4-14.6-0.4
		c-0.4,0-7.9,0.4-11.5,0.4c-1.2,0-2-0.3-2-0.9c0-0.5,0.5-0.9,1.7-0.9c0.6,0,2-0.1,3.1-0.4c2.2-0.5,2.6-3.1,2.9-6.1
		c0.6-4.6,0.6-13.7,0.6-23.3V52.4z"/>
	<path class="st2" d="M860.3,71.8c0,14.7,0.5,22.1,2.7,24.2c2,1.8,4.6,2.6,13.4,2.6c5.6,0,10.7,0,13.5-3.6c1.3-1.9,2.2-4.5,2.4-6.4
		c0.1-1,0.4-1.5,1-1.5c0.5,0,0.8,0.4,0.8,1.7s-0.8,8.6-1.5,11.5c-0.8,2.6-0.6,3.2-6.8,3.2c-8.7,0-18.3-0.6-31.1-0.6
		c-4.2,0-6.8,0.4-11.2,0.4c-1.3,0-2-0.3-2-1c0-0.4,0.4-0.8,1.4-0.8s2,0,3.1-0.3c2.2-0.4,2.9-2.9,3.3-6c0.8-4.9,0.5-13.7,0.5-23.5
		V52.4c0-16.9,0-19.7-0.3-23.1c-0.3-3.6-0.8-5.9-5.1-6.4c-0.8-0.1-2.2-0.1-3.2-0.1c-0.9,0-1.4-0.4-1.4-0.9c0-0.6,0.6-0.9,1.9-0.9
		c5.4,0,13,0.4,13.3,0.4c1.8,0,9.6-0.4,13.2-0.4c1.3,0,1.7,0.4,1.7,0.9c0,0.5-0.6,0.9-1.4,0.9c-0.9,0-2.2,0.1-3.5,0.3
		c-3.6,0.5-4.3,2.6-4.6,6.3c-0.3,3.5-0.1,6.3-0.1,23.1V71.8z"/>
	<path class="st2" d="M920.1,71.9c-0.6,0-1,0.4-1.3,1l-5.6,16c-1.3,3.6-2.2,7-2.2,9.1c0,2.3,1.4,3.3,4.2,3.3c0.4,0,0.5,0,0.9,0
		c1.2,0,1.5,0.4,1.5,0.9c0,0.6-1,0.9-1.9,0.9c-2.8,0-8.7-0.4-10.1-0.4c-1.3,0-6.9,0.4-12.3,0.4c-1.4,0-2-0.3-2-0.9
		c0-0.5,0.5-0.9,1.5-0.9c0.6,0,1.8,0,2.6-0.1c5.5-0.5,7.7-4.7,9.8-10.1l25.6-67.3c1.4-3.7,1.8-4.3,2.7-4.3c0.6,0,1.2,0.5,2.6,4.1
		c1.8,4.2,19.2,48.8,25.9,64.8c4.2,10.1,7.9,11.8,9.7,12.4c1.7,0.6,3.5,0.6,4.3,0.6c0.9,0,1.5,0.3,1.5,0.9c0,0.6-0.5,0.9-1.9,0.9
		c-1.3,0-10.9,0-19.4-0.3c-2.4-0.1-3.2-0.3-3.2-0.9c0-0.4,0.4-0.8,0.9-0.9c0.5-0.3,1.3-0.9,0.5-2.8l-10.1-25.7
		c-0.3-0.4-0.5-0.6-1-0.6H920.1z M941.8,67.4c0.5,0,0.5-0.4,0.4-0.8l-10.1-28.2c-0.6-1.8-0.8-1.8-1.4,0l-9.6,28.2
		c-0.3,0.5,0,0.8,0.3,0.8H941.8z"/>
	<path class="st2" d="M989.7,24.6c0-4,0.4-5.2,1.4-5.2c0.9,0,3.1,2.6,4,3.5c1.2,1.3,18.9,19.4,36.8,37.7c10,9.7,22.7,22.9,26.1,25.9
		l-1.4-53.2c-0.1-6.9-0.9-9.2-4.3-10.1c-2.2-0.4-4.1-0.5-5-0.5c-1.3,0-1.5-0.5-1.5-1c0-0.6,1-0.8,2.3-0.8c5.5,0,10.9,0.4,12,0.4
		c1.3,0,5.2-0.4,10.2-0.4c1.4,0,1.8,0.1,1.8,0.8c0,0.5-0.4,0.9-1.2,1c-0.8,0.1-1.8,0.1-3.2,0.4c-2.9,0.6-3.8,1.9-3.8,9.6l-0.3,64.2
		c0,6.4-0.3,7-1.2,7s-2.2-0.9-8.4-6.8c-0.5-0.3-18.3-17.9-29.4-28.8c-13.3-13.8-26.1-27.1-29.3-30.4l1.7,50c0.3,8.8,1,12.1,4.2,12.9
		c2,0.5,4.2,0.5,5.2,0.5s1.5,0.4,1.5,0.9c0,0.6-0.6,0.9-2,0.9c-6.9,0-11.5-0.4-12.4-0.4c-0.9,0-5.6,0.4-11.1,0.4
		c-1.2,0-1.9-0.1-1.9-0.9c0-0.5,0.5-0.9,1.8-0.9c0.9,0,2.3,0,4-0.5c2.8-0.9,3.5-4.3,3.5-13.7C989.7,26.2,989.9,45.9,989.7,24.6z"/>
	<path class="st2" d="M1087.6,52.4c0-16.9,0-19.9-0.3-23.4c-0.3-3.5-1-5.4-3.7-5.9c-1.3-0.3-2.2-0.3-2.9-0.4
		c-0.9-0.1-1.4-0.4-1.4-0.9c0-0.6,0.5-0.9,1.9-0.9c4,0,11.2,0.4,11.6,0.4c0.5,0,7.9-0.4,11.5-0.4c1.3,0,1.9,0.3,1.9,0.9
		c0,0.5-0.4,0.8-1.4,0.9c-0.8,0.1-1.4,0.1-2.3,0.3c-3.7,0.5-4.1,2.4-4.3,6.1c-0.3,3.5-0.1,6.4-0.1,23.3v19.2
		c0,9.8-0.1,18.8,0.5,23.4c0.5,3.7,1,5.1,4.3,5.9c1.7,0.4,4.3,0.5,4.9,0.5c1.2,0.1,1.4,0.4,1.4,0.9c0,0.5-0.5,0.9-1.8,0.9
		c-6.5,0-13.9-0.4-14.6-0.4c-0.4,0-7.9,0.4-11.5,0.4c-1.2,0-2-0.3-2-0.9c0-0.5,0.5-0.9,1.7-0.9c0.6,0,2-0.1,3.1-0.4
		c2.2-0.5,2.6-3.1,2.9-6.1c0.6-4.6,0.6-13.7,0.6-23.3V52.4z"/>
</g>
<g>
	<path class="st3" d="M386,133.5h24.8v5h-18.8v15.3h17.4v4.9h-17.4v20.8H386V133.5z"/>
	<path class="st3" d="M417.2,156.8c0-3.9-0.1-7.2-0.3-10.3h5.3l0.2,6.5h0.3c1.5-4.4,5.1-7.2,9.1-7.2c0.7,0,1.2,0.1,1.7,0.2v5.7
		c-0.6-0.1-1.2-0.2-2-0.2c-4.2,0-7.2,3.2-8,7.7c-0.1,0.8-0.3,1.8-0.3,2.8v17.6h-5.9V156.8z"/>
	<path class="st3" d="M468.7,162.7c0,12.2-8.5,17.5-16.4,17.5c-8.9,0-15.8-6.5-15.8-17c0-11,7.2-17.5,16.4-17.5
		C462.3,145.7,468.7,152.6,468.7,162.7z M442.5,163.1c0,7.2,4.2,12.7,10,12.7c5.7,0,10-5.4,10-12.8c0-5.6-2.8-12.7-9.9-12.7
		C445.6,150.2,442.5,156.8,442.5,163.1z"/>
	<path class="st3" d="M476.3,155.4c0-3.4-0.1-6.2-0.3-8.9h5.3l0.3,5.5h0.1c1.6-3.1,5.5-6.2,10.9-6.2c4.6,0,11.7,2.7,11.7,14v19.7h-6
		v-19c0-5.3-2-9.8-7.6-9.8c-4,0-7,2.8-8,6.1c-0.3,0.8-0.4,1.8-0.4,2.8v19.8h-6V155.4z"/>
	<path class="st3" d="M521.1,137v9.5h8.6v4.6h-8.6v17.8c0,4.1,1.2,6.4,4.5,6.4c1.6,0,2.7-0.2,3.5-0.4l0.3,4.5
		c-1.2,0.5-3,0.8-5.3,0.8c-2.8,0-5-0.9-6.5-2.5c-1.7-1.8-2.3-4.7-2.3-8.6v-18h-5.1v-4.6h5.1v-7.9L521.1,137z"/>
	<path class="st3" d="M574.9,157.9H557v16.6H577v5h-25.9v-46h24.8v5H557V153h17.9V157.9z"/>
	<path class="st3" d="M584.5,155.4c0-3.4-0.1-6.2-0.3-8.9h5.3l0.3,5.5h0.1c1.6-3.1,5.5-6.2,10.9-6.2c4.6,0,11.7,2.7,11.7,14v19.7h-6
		v-19c0-5.3-2-9.8-7.6-9.8c-4,0-7,2.8-8,6.1c-0.3,0.8-0.4,1.8-0.4,2.8v19.8h-6V155.4z"/>
	<path class="st3" d="M650.8,131.1V171c0,2.9,0.1,6.3,0.3,8.5h-5.4l-0.3-5.7h-0.1c-1.8,3.7-5.9,6.5-11.3,6.5
		c-8,0-14.1-6.8-14.1-16.8c-0.1-11,6.8-17.7,14.8-17.7c5,0,8.5,2.4,10,5h0.1v-19.7H650.8z M644.8,159.9c0-0.8-0.1-1.8-0.3-2.5
		c-0.9-3.8-4.2-7-8.7-7c-6.2,0-9.9,5.5-9.9,12.8c0,6.7,3.3,12.2,9.8,12.2c4,0,7.7-2.7,8.8-7.2c0.2-0.8,0.3-1.6,0.3-2.6V159.9z"/>
	<path class="st3" d="M680.5,179.5l-11.7-46h6.3l5.5,23.3c1.4,5.7,2.6,11.5,3.4,15.9h0.1c0.8-4.6,2.2-10,3.8-16l6.1-23.2h6.2
		l5.6,23.3c1.3,5.5,2.5,10.9,3.2,15.8h0.1c1-5,2.3-10.2,3.7-15.9l6.1-23.2h6.1l-13,46h-6.2l-5.8-23.9c-1.4-5.9-2.4-10.4-3-15h-0.1
		c-0.8,4.6-1.8,9.1-3.5,15l-6.5,23.9H680.5z"/>
	<path class="st3" d="M731.6,164.1c0.1,8.1,5.3,11.5,11.3,11.5c4.3,0,6.9-0.8,9.1-1.7l1,4.3c-2.1,1-5.7,2-11,2
		c-10.2,0-16.2-6.7-16.2-16.6c0-10,5.9-17.8,15.5-17.8c10.8,0,13.6,9.5,13.6,15.6c0,1.2-0.1,2.2-0.2,2.8H731.6z M749.2,159.8
		c0.1-3.8-1.6-9.8-8.3-9.8c-6.1,0-8.7,5.6-9.2,9.8H749.2z"/>
	<path class="st3" d="M762.1,179.5c0.1-2.3,0.3-5.6,0.3-8.5v-39.9h5.9v20.7h0.1c2.1-3.7,5.9-6.1,11.3-6.1c8.2,0,14,6.8,13.9,16.8
		c0,11.8-7.4,17.7-14.8,17.7c-4.8,0-8.6-1.8-11-6.2h-0.2l-0.3,5.5H762.1z M768.3,166.3c0,0.8,0.1,1.5,0.3,2.2c1.2,4.2,4.6,7,9,7
		c6.3,0,10-5.1,10-12.7c0-6.6-3.4-12.3-9.8-12.3c-4.1,0-7.9,2.8-9.1,7.4c-0.1,0.7-0.3,1.5-0.3,2.5V166.3z"/>
	<path class="st3" d="M815.9,134.1c3.6-0.5,7.9-1,12.6-1c8.5,0,14.6,2,18.6,5.7c4.1,3.8,6.5,9.1,6.5,16.5c0,7.5-2.3,13.6-6.6,17.9
		c-4.3,4.3-11.4,6.6-20.3,6.6c-4.2,0-7.8-0.2-10.8-0.5V134.1z M821.8,174.8c1.5,0.3,3.7,0.3,6,0.3c12.7,0,19.6-7.1,19.6-19.5
		c0.1-10.8-6.1-17.7-18.6-17.7c-3.1,0-5.4,0.3-7,0.6V174.8z"/>
	<path class="st3" d="M864.7,164.1c0.1,8.1,5.3,11.5,11.3,11.5c4.3,0,6.9-0.8,9.1-1.7l1,4.3c-2.1,1-5.7,2-11,2
		c-10.2,0-16.2-6.7-16.2-16.6c0-10,5.9-17.8,15.5-17.8c10.8,0,13.6,9.5,13.6,15.6c0,1.2-0.1,2.2-0.2,2.8H864.7z M882.3,159.8
		c0.1-3.8-1.6-9.8-8.3-9.8c-6.1,0-8.7,5.6-9.2,9.8H882.3z"/>
	<path class="st3" d="M897.8,146.5l6.5,18.6c1.1,3,2,5.7,2.7,8.5h0.2c0.8-2.7,1.7-5.5,2.8-8.5l6.4-18.6h6.3l-13,33H904l-12.5-33
		H897.8z"/>
	<path class="st3" d="M931,164.1c0.1,8.1,5.3,11.5,11.3,11.5c4.3,0,6.9-0.8,9.1-1.7l1,4.3c-2.1,1-5.7,2-11,2
		c-10.2,0-16.2-6.7-16.2-16.6c0-10,5.9-17.8,15.5-17.8c10.8,0,13.6,9.5,13.6,15.6c0,1.2-0.1,2.2-0.2,2.8H931z M948.6,159.8
		c0.1-3.8-1.6-9.8-8.3-9.8c-6.1,0-8.7,5.6-9.2,9.8H948.6z"/>
	<path class="st3" d="M961.8,131.1h6v48.4h-6V131.1z"/>
	<path class="st3" d="M1007.8,162.7c0,12.2-8.5,17.5-16.4,17.5c-8.9,0-15.8-6.5-15.8-17c0-11,7.2-17.5,16.4-17.5
		C1001.4,145.7,1007.8,152.6,1007.8,162.7z M981.6,163.1c0,7.2,4.2,12.7,10,12.7c5.7,0,10-5.4,10-12.8c0-5.6-2.8-12.7-9.9-12.7
		C984.7,150.2,981.6,156.8,981.6,163.1z"/>
	<path class="st3" d="M1015.3,157.3c0-4.2-0.1-7.6-0.3-10.8h5.4l0.3,5.7h0.1c2.5-4,6.3-6.4,11.7-6.4c8,0,14,6.8,14,16.8
		c0,11.9-7.2,17.7-15,17.7c-4.4,0-8.2-1.9-10.2-5.2h-0.1V193h-5.9V157.3z M1021.3,166.1c0,0.9,0.1,1.7,0.3,2.5c1.1,4.2,4.7,7,9,7
		c6.3,0,10-5.2,10-12.8c0-6.6-3.5-12.3-9.8-12.3c-4.1,0-7.9,2.9-9.1,7.4c-0.2,0.8-0.4,1.6-0.4,2.5V166.1z"/>
	<path class="st3" d="M1057.5,164.1c0.1,8.1,5.3,11.5,11.3,11.5c4.3,0,6.9-0.8,9.1-1.7l1,4.3c-2.1,1-5.7,2-11,2
		c-10.2,0-16.2-6.7-16.2-16.6c0-10,5.9-17.8,15.5-17.8c10.8,0,13.6,9.5,13.6,15.6c0,1.2-0.1,2.2-0.2,2.8H1057.5z M1075.1,159.8
		c0.1-3.8-1.6-9.8-8.3-9.8c-6.1,0-8.7,5.6-9.2,9.8H1075.1z"/>
	<path class="st3" d="M1088.3,156.8c0-3.9-0.1-7.2-0.3-10.3h5.3l0.2,6.5h0.3c1.5-4.4,5.1-7.2,9.1-7.2c0.7,0,1.2,0.1,1.7,0.2v5.7
		c-0.6-0.1-1.2-0.2-2-0.2c-4.2,0-7.2,3.2-8,7.7c-0.1,0.8-0.3,1.8-0.3,2.8v17.6h-5.9V156.8z"/>
</g>
<linearGradient id="SVGID_2_" gradientUnits="userSpaceOnUse" x1="145.5813" y1="383.9537" x2="145.5813" y2="197.2387">
	<stop  offset="0" style="stop-color:#A0C13B"/>
	<stop  offset="0.5" style="stop-color:#4A5B1F"/>
	<stop  offset="0.5" style="stop-color:#A0C13B"/>
	<stop  offset="1" style="stop-color:#4A5B1F"/>
</linearGradient>
<path class="st4" d="M194.7,261.2c10.7-9.7,57.9-49.3,68.8-55.1c6.6-1.8,13-2.5,16.8-3l1.5-5.3c-8.6,0.5-20.3,1-27.7,1
	c-9.9,0-27.9-0.5-38.6-1l1,5.3c5.6,0.8,13,2,18.8,3.6c-7.4,12.4-65,61.7-81.5,76.2V275c0-20.8,0.3-60.2,1.3-68.3
	c5.8-1,22.9-3,25.9-3.6l0-0.1c0.4,0,0.7-0.1,1-0.1l0.8-5.3l-54.9-0.3c-9.9,0-20.8,0-31.4,0.6c-0.4,0-0.7,0-0.9-0.1l0,0.1
	c-15,0.8-29.4,2.5-39.4,6.5c-13.5,5.3-21.8,15-21.8,29c0,16,16.3,37.1,35.8,48c-2.8,6.4-43.7,72.9-70.1,100.9l11.2,1.8
	c17.8-8.1,85.4-86.1,89.4-91.5c9.4,0.7,19.6,1.5,24.1,1.5c-0.1,33-0.5,62.9-1.2,74c-4.7,1.3-26.8,4.2-27,4.2l-1,5.3
	c7.4-0.5,31.5-1,43.4-1c13.7,0,40.6,0.5,45.5,1l-0.5-5.3c-0.5-0.1-14.8-1.8-22.6-3c-2.6-0.5-4.8-1.1-6.4-1.8c-1-9.4-1.3-45-1.3-67.1
	v-6.1c3.3-3,11.2-9.7,16-13.2c7.1,7.6,92.7,95.3,112.5,102.9l8.6-2.8C277.8,368.9,204.6,277,194.7,261.2z M94.2,281.3
	c-10.9-4.1-29-15.8-29-40.9c0-14.7,12-32.2,46.7-35.5c4.6,0.6,9,1.3,11.7,1.7c0.8,6.9,1.3,42.2,1.3,66v13.5
	C115.8,286.1,105,285.3,94.2,281.3z"/>
<g>
	<path class="st1" d="M396.8,234.6c0-19.9,0-23.5-0.3-27.6c-0.3-4.3-1.3-6.4-5.5-7.3c-1-0.3-3.2-0.4-4.3-0.4c-0.5,0-1-0.3-1-0.8
		c0-0.8,0.6-1,2-1c5.8,0,13.8,0.4,14.4,0.4c1.4,0,11.1-0.4,15.1-0.4c8.1,0,16.6,0.8,23.4,5.6c3.2,2.3,8.8,8.6,8.8,17.4
		c0,9.5-4,18.9-15.5,29.5c10.5,13.4,19.2,24.8,26.6,32.7c6.9,7.3,12.4,8.7,15.6,9.2c2.4,0.4,4.2,0.4,5,0.4c0.6,0,1.2,0.4,1.2,0.8
		c0,0.8-0.8,1-3.1,1h-9.1c-7.2,0-10.4-0.6-13.7-2.4c-5.5-2.9-10-9.2-17.3-18.8c-5.4-7-11.4-15.6-13.9-18.9c-0.5-0.5-0.9-0.8-1.7-0.8
		l-15.7-0.3c-0.6,0-0.9,0.4-0.9,1v3.1c0,12.3,0,22.4,0.6,27.7c0.4,3.7,1.1,6.5,5,7c1.8,0.3,4.6,0.5,5.8,0.5c0.8,0,1,0.4,1,0.8
		c0,0.6-0.6,1-2,1c-7,0-15.1-0.4-15.7-0.4c-0.1,0-8.2,0.4-12,0.4c-1.4,0-2-0.3-2-1c0-0.4,0.3-0.8,1-0.8c1.2,0,2.7-0.3,3.8-0.5
		c2.6-0.5,3.2-3.3,3.7-7c0.6-5.4,0.6-15.5,0.6-27.7V234.6z M407,245.7c0,0.6,0.3,1.2,0.9,1.5c1.9,1.2,7.8,2,13.4,2
		c3.1,0,6.6-0.4,9.6-2.4c4.5-3.1,7.8-10,7.8-19.7c0-16-8.4-25.6-22.1-25.6c-3.8,0-7.3,0.4-8.6,0.8c-0.6,0.3-1,0.8-1,1.5V245.7z"/>
	<path class="st1" d="M487.2,243.4c0-16.9,0-19.9-0.3-23.4c-0.3-3.5-1-5.4-3.7-5.9c-1.3-0.3-2.2-0.3-2.9-0.4
		c-0.9-0.1-1.4-0.4-1.4-0.9c0-0.6,0.5-0.9,1.9-0.9c4,0,11.2,0.4,11.6,0.4c0.5,0,7.9-0.4,11.5-0.4c1.3,0,1.9,0.3,1.9,0.9
		c0,0.5-0.4,0.8-1.4,0.9c-0.8,0.1-1.4,0.1-2.3,0.3c-3.7,0.5-4.1,2.4-4.3,6.1c-0.3,3.5-0.1,6.4-0.1,23.3v19.2
		c0,9.8-0.1,18.8,0.5,23.4c0.5,3.7,1,5.1,4.3,5.9c1.7,0.4,4.3,0.5,4.9,0.5c1.2,0.1,1.4,0.4,1.4,0.9c0,0.5-0.5,0.9-1.8,0.9
		c-6.5,0-13.9-0.4-14.6-0.4c-0.4,0-7.9,0.4-11.5,0.4c-1.2,0-2-0.3-2-0.9c0-0.5,0.5-0.9,1.7-0.9c0.6,0,2-0.1,3.1-0.4
		c2.2-0.5,2.6-3.1,2.9-6.1c0.6-4.6,0.6-13.7,0.6-23.3V243.4z"/>
	<path class="st1" d="M543,262.9c-0.6,0-1,0.4-1.3,1l-5.6,16c-1.3,3.6-2.2,7-2.2,9.1c0,2.3,1.4,3.3,4.2,3.3c0.4,0,0.5,0,0.9,0
		c1.2,0,1.5,0.4,1.5,0.9c0,0.6-1,0.9-1.9,0.9c-2.8,0-8.7-0.4-10.1-0.4c-1.3,0-6.9,0.4-12.3,0.4c-1.4,0-2-0.3-2-0.9
		c0-0.5,0.5-0.9,1.5-0.9c0.6,0,1.8,0,2.6-0.1c5.5-0.5,7.7-4.7,9.8-10.1l25.6-67.3c1.4-3.7,1.8-4.3,2.7-4.3c0.6,0,1.1,0.5,2.6,4.1
		c1.8,4.2,19.2,48.8,25.9,64.8c4.2,10.1,7.9,11.8,9.7,12.4c1.7,0.6,3.5,0.6,4.3,0.6c0.9,0,1.5,0.3,1.5,0.9c0,0.6-0.5,0.9-1.9,0.9
		c-1.3,0-10.9,0-19.4-0.3c-2.4-0.1-3.2-0.3-3.2-0.9c0-0.4,0.4-0.8,0.9-0.9c0.5-0.3,1.3-0.9,0.5-2.8l-10.1-25.7
		c-0.3-0.4-0.5-0.6-1-0.6H543z M564.7,258.4c0.5,0,0.5-0.4,0.4-0.8L555,229.4c-0.6-1.8-0.8-1.8-1.4,0l-9.6,28.2
		c-0.3,0.5,0,0.8,0.3,0.8H564.7z"/>
	<path class="st1" d="M611.9,243.4c0-16.9,0-20.1-0.3-23.4c-0.3-3.5-1.3-5.2-5-6c-0.8-0.1-2.7-0.3-3.7-0.3c-0.6,0-1.3-0.4-1.3-0.8
		c0-0.8,0.8-1,1.9-1c5.2,0,13.3,0.4,13.7,0.4c0.9,0,7.5-0.4,14.7-0.4c11.2,0,32.2-1.2,45.8,12.5c5.6,5.6,10.9,14.6,10.9,27.5
		c0,13.5-5.9,24.2-12.1,30.5c-5,5-14.7,12.5-34.1,12.5c-4.9,0-11.1-0.3-16-0.6c-4.9-0.3-8.8-0.6-9.2-0.6c-0.3,0-1.9,0-4.3,0.1
		c-2.4,0-5.5,0.3-7.4,0.3c-1.2,0-1.8-0.3-1.8-0.9c0-0.4,0.4-0.9,1.4-0.9c1,0,1.9-0.1,2.9-0.4c2.2-0.4,2.9-3.1,3.3-5.9
		c0.8-4.7,0.6-13.4,0.6-23.8V243.4z M622.3,254.2c0,11.5,0.1,21.5,0.1,23.4c0.1,4,0.4,7.4,1.3,8.6c1.4,2.2,5.5,4.9,18.8,4.9
		c10.5,0,19.9-3.3,26.6-10c5.6-5.6,8.3-15.2,8.3-25.4c0-14.4-6.6-23.3-11-27.5c-10.9-10.9-23.4-12.1-36-12.1c-1.8,0-5.8,0.4-6.5,0.9
		c-1,0.5-1.4,1-1.4,2.2c-0.1,3.7-0.1,14.6-0.1,22.2V254.2z"/>
	<path class="st2" d="M724.3,242.7c4-3.8,21.3-22.1,29.1-30.2c7.7-7.9,8.2-9.2,8.2-10.7c0-1-0.6-2-1.7-2.4c-0.9-0.4-1.2-0.6-1.2-1.2
		c0-0.5,0.8-0.8,1.9-0.8c3.7,0,3.3,0.4,7.7,0.4c4,0,11.5-0.4,13.5-0.4c1.8,0,2.2,0.4,2.2,0.9s-0.3,0.8-1.4,0.9
		c-2.4,0.3-4.7,0.8-6.5,1.5c-3.2,1.3-5.6,2.8-13.3,10.2c-11.2,10.9-25.8,25.3-29.1,29c8.1,8.8,31.3,32.5,37.3,38.1
		c10.5,9.8,15,12.7,21.1,13.8c1.2,0.3,2.4,0.4,3.7,0.4c1,0,1.8,0.3,1.8,0.9c0,0.6-0.5,0.9-1.9,0.9h-9.5c-11.1,0-14.1-1.4-20.1-6.1
		c-7.7-6-30.7-30.7-41.9-44.1V257c0,12.3,0,22.4,0.6,27.7c0.4,3.7,1.1,6.5,5,7c1.8,0.3,4.3,0.5,5.1,0.5c1.2,0,1.5,0.5,1.5,0.9
		c0,0.6-0.5,0.9-1.9,0.9c-7,0-15.1-0.4-15.7-0.4c-0.6,0-8.2,0.4-12,0.4c-1.4,0-2-0.1-2-0.9c0-0.4,0.3-0.9,1.4-0.9
		c0.8,0,2.2-0.1,3.3-0.4c2.6-0.5,3.3-3.4,3.8-7.2c0.6-5.4,0.6-15.5,0.6-27.7v-22.5c0-19.9,0-23.5-0.3-27.6c-0.3-4.3-1.5-6.5-4.3-7.2
		c-1.4-0.4-3.7-0.5-4.6-0.5c-1,0-1.4-0.3-1.4-0.8c0-0.8,0.6-1,2-1c4.2,0,12.8,0.4,13.4,0.4c0.6,0,8.7-0.4,12.5-0.4
		c1.4,0,2,0.3,2,0.9c0,0.5-0.3,0.8-1.4,0.9c-1.4,0.1-1.5,0.1-2.8,0.3c-3.5,0.4-4.5,2.9-4.7,7.4c-0.3,4.1-0.3,7.7-0.3,27.6V242.7z"/>
	<path class="st2" d="M810.6,243.4c0-16.9,0-19.9-0.3-23.4s-1-5.4-3.7-5.9c-1.3-0.3-2.2-0.3-2.9-0.4c-0.9-0.1-1.4-0.4-1.4-0.9
		c0-0.6,0.5-0.9,1.9-0.9c4,0,11.2,0.4,11.6,0.4c0.5,0,7.9-0.4,11.5-0.4c1.3,0,1.9,0.3,1.9,0.9c0,0.5-0.4,0.8-1.4,0.9
		c-0.8,0.1-1.4,0.1-2.3,0.3c-3.7,0.5-4.1,2.4-4.3,6.1c-0.3,3.5-0.1,6.4-0.1,23.3v19.2c0,9.8-0.1,18.8,0.5,23.4
		c0.5,3.7,1,5.1,4.3,5.9c1.7,0.4,4.3,0.5,4.9,0.5c1.2,0.1,1.4,0.4,1.4,0.9c0,0.5-0.5,0.9-1.8,0.9c-6.5,0-13.9-0.4-14.6-0.4
		c-0.4,0-7.9,0.4-11.5,0.4c-1.2,0-2-0.3-2-0.9c0-0.5,0.5-0.9,1.7-0.9c0.6,0,2-0.1,3.1-0.4c2.2-0.5,2.6-3.1,2.9-6.1
		c0.6-4.6,0.6-13.7,0.6-23.3V243.4z"/>
	<path class="st2" d="M860.3,262.8c0,14.7,0.5,22.1,2.7,24.2c2,1.8,4.6,2.6,13.4,2.6c5.6,0,10.7,0,13.5-3.6c1.3-1.9,2.2-4.5,2.4-6.4
		c0.1-1,0.4-1.5,1-1.5c0.5,0,0.8,0.4,0.8,1.7s-0.8,8.6-1.5,11.5c-0.8,2.6-0.6,3.2-6.8,3.2c-8.7,0-18.3-0.6-31.1-0.6
		c-4.2,0-6.8,0.4-11.2,0.4c-1.3,0-2-0.3-2-1c0-0.4,0.4-0.8,1.4-0.8s2,0,3.1-0.3c2.2-0.4,2.9-2.9,3.3-6c0.8-4.9,0.5-13.7,0.5-23.5
		v-19.2c0-16.9,0-19.7-0.3-23.1c-0.3-3.6-0.8-5.9-5.1-6.4c-0.8-0.1-2.2-0.1-3.2-0.1c-0.9,0-1.4-0.4-1.4-0.9c0-0.6,0.6-0.9,1.9-0.9
		c5.4,0,13,0.4,13.3,0.4c1.8,0,9.6-0.4,13.2-0.4c1.3,0,1.7,0.4,1.7,0.9c0,0.5-0.6,0.9-1.4,0.9c-0.9,0-2.2,0.1-3.5,0.3
		c-3.6,0.5-4.3,2.6-4.6,6.3c-0.3,3.5-0.1,6.3-0.1,23.1V262.8z"/>
	<path class="st2" d="M920.1,262.9c-0.6,0-1,0.4-1.3,1l-5.6,16c-1.3,3.6-2.2,7-2.2,9.1c0,2.3,1.4,3.3,4.2,3.3c0.4,0,0.5,0,0.9,0
		c1.2,0,1.5,0.4,1.5,0.9c0,0.6-1,0.9-1.9,0.9c-2.8,0-8.7-0.4-10.1-0.4c-1.3,0-6.9,0.4-12.3,0.4c-1.4,0-2-0.3-2-0.9
		c0-0.5,0.5-0.9,1.5-0.9c0.6,0,1.8,0,2.6-0.1c5.5-0.5,7.7-4.7,9.8-10.1l25.6-67.3c1.4-3.7,1.8-4.3,2.7-4.3c0.6,0,1.2,0.5,2.6,4.1
		c1.8,4.2,19.2,48.8,25.9,64.8c4.2,10.1,7.9,11.8,9.7,12.4c1.7,0.6,3.5,0.6,4.3,0.6c0.9,0,1.5,0.3,1.5,0.9c0,0.6-0.5,0.9-1.9,0.9
		c-1.3,0-10.9,0-19.4-0.3c-2.4-0.1-3.2-0.3-3.2-0.9c0-0.4,0.4-0.8,0.9-0.9c0.5-0.3,1.3-0.9,0.5-2.8l-10.1-25.7
		c-0.3-0.4-0.5-0.6-1-0.6H920.1z M941.8,258.4c0.5,0,0.5-0.4,0.4-0.8l-10.1-28.2c-0.6-1.8-0.8-1.8-1.4,0l-9.6,28.2
		c-0.3,0.5,0,0.8,0.3,0.8H941.8z"/>
	<path class="st2" d="M989.7,215.6c0-4,0.4-5.2,1.4-5.2c0.9,0,3.1,2.6,4,3.5c1.2,1.3,18.9,19.4,36.8,37.7
		c10,9.7,22.7,22.9,26.1,25.9l-1.4-53.2c-0.1-6.9-0.9-9.2-4.3-10.1c-2.2-0.4-4.1-0.5-5-0.5c-1.3,0-1.5-0.5-1.5-1
		c0-0.6,1-0.8,2.3-0.8c5.5,0,10.9,0.4,12,0.4c1.3,0,5.2-0.4,10.2-0.4c1.4,0,1.8,0.1,1.8,0.8c0,0.5-0.4,0.9-1.2,1
		c-0.8,0.1-1.8,0.1-3.2,0.4c-2.9,0.6-3.8,1.9-3.8,9.6l-0.3,64.2c0,6.4-0.3,7-1.2,7s-2.2-0.9-8.4-6.8c-0.5-0.3-18.3-17.9-29.4-28.8
		c-13.3-13.8-26.1-27.1-29.3-30.4l1.7,50c0.3,8.8,1,12.1,4.2,12.9c2,0.5,4.2,0.5,5.2,0.5s1.5,0.4,1.5,0.9c0,0.6-0.6,0.9-2,0.9
		c-6.9,0-11.5-0.4-12.4-0.4c-0.9,0-5.6,0.4-11.1,0.4c-1.2,0-1.9-0.1-1.9-0.9c0-0.5,0.5-0.9,1.8-0.9c0.9,0,2.3,0,4-0.5
		c2.8-0.9,3.5-4.3,3.5-13.7C989.7,217.2,989.9,236.9,989.7,215.6z"/>
	<path class="st2" d="M1087.6,243.4c0-16.9,0-19.9-0.3-23.4c-0.3-3.5-1-5.4-3.7-5.9c-1.3-0.3-2.2-0.3-2.9-0.4
		c-0.9-0.1-1.4-0.4-1.4-0.9c0-0.6,0.5-0.9,1.9-0.9c4,0,11.2,0.4,11.6,0.4c0.5,0,7.9-0.4,11.5-0.4c1.3,0,1.9,0.3,1.9,0.9
		c0,0.5-0.4,0.8-1.4,0.9c-0.8,0.1-1.4,0.1-2.3,0.3c-3.7,0.5-4.1,2.4-4.3,6.1c-0.3,3.5-0.1,6.4-0.1,23.3v19.2
		c0,9.8-0.1,18.8,0.5,23.4c0.5,3.7,1,5.1,4.3,5.9c1.7,0.4,4.3,0.5,4.9,0.5c1.2,0.1,1.4,0.4,1.4,0.9c0,0.5-0.5,0.9-1.8,0.9
		c-6.5,0-13.9-0.4-14.6-0.4c-0.4,0-7.9,0.4-11.5,0.4c-1.2,0-2-0.3-2-0.9c0-0.5,0.5-0.9,1.7-0.9c0.6,0,2-0.1,3.1-0.4
		c2.2-0.5,2.6-3.1,2.9-6.1c0.6-4.6,0.6-13.7,0.6-23.3V243.4z"/>
</g>
<g>
	<path class="st3" d="M711.1,322.5v28.1c0,10.6,4.7,15.1,11.1,15.1c7,0,11.6-4.6,11.6-15.1v-28.1h6.2v27.7c0,14.6-7.7,20.6-18,20.6
		c-9.7,0-17-5.6-17-20.3v-28H711.1z"/>
	<path class="st3" d="M776.6,370l-6.1-10.5c-2.5-4-4-6.6-5.5-9.4h-0.1c-1.3,2.7-2.7,5.3-5.1,9.4L754,370h-7l14.5-24l-13.9-23.5h7.1
		l6.3,11.1c1.8,3.1,3.1,5.5,4.4,8h0.2c1.3-2.8,2.5-5,4.3-8l6.5-11.1h7l-14.4,23.1l14.8,24.4H776.6z"/>
	<path class="st3" d="M805.7,323.1c3.7-0.6,8.2-1,13-1c8.8,0,15.1,2,19.2,5.9c4.2,3.9,6.7,9.4,6.7,17c0,7.8-2.4,14.1-6.8,18.5
		c-4.4,4.4-11.8,6.8-21,6.8c-4.4,0-8-0.2-11.1-0.6V323.1z M811.9,365.1c1.5,0.3,3.8,0.4,6.2,0.4c13.1,0,20.2-7.3,20.2-20.1
		c0.1-11.2-6.3-18.3-19.2-18.3c-3.2,0-5.6,0.3-7.2,0.6V365.1z"/>
	<path class="st3" d="M856.2,354c0.1,8.4,5.5,11.8,11.7,11.8c4.4,0,7.1-0.8,9.4-1.8l1.1,4.4c-2.2,1-5.9,2.1-11.3,2.1
		c-10.5,0-16.8-6.9-16.8-17.2c0-10.3,6.1-18.4,16-18.4c11.1,0,14.1,9.8,14.1,16.1c0,1.3-0.1,2.3-0.2,2.9H856.2z M874.4,349.6
		c0.1-3.9-1.6-10.1-8.6-10.1c-6.3,0-9,5.8-9.5,10.1H874.4z"/>
	<path class="st3" d="M890.4,335.9l6.7,19.2c1.1,3.1,2,5.9,2.7,8.7h0.2c0.8-2.8,1.8-5.6,2.9-8.7l6.6-19.2h6.5L902.7,370h-5.9
		l-13-34.1H890.4z"/>
	<path class="st3" d="M924.7,354c0.1,8.4,5.5,11.8,11.7,11.8c4.4,0,7.1-0.8,9.4-1.8l1.1,4.4c-2.2,1-5.9,2.1-11.3,2.1
		c-10.5,0-16.8-6.9-16.8-17.2c0-10.3,6.1-18.4,16-18.4c11.1,0,14.1,9.8,14.1,16.1c0,1.3-0.1,2.3-0.2,2.9H924.7z M942.8,349.6
		c0.1-3.9-1.6-10.1-8.6-10.1c-6.3,0-9,5.8-9.5,10.1H942.8z"/>
	<path class="st3" d="M956.5,319.9h6.2v50h-6.2V319.9z"/>
	<path class="st3" d="M1004,352.6c0,12.6-8.7,18.1-17,18.1c-9.2,0-16.3-6.8-16.3-17.5c0-11.4,7.5-18.1,16.9-18.1
		C997.4,335.1,1004,342.2,1004,352.6z M976.9,353c0,7.5,4.3,13.1,10.4,13.1c5.9,0,10.4-5.6,10.4-13.2c0-5.8-2.9-13.1-10.2-13.1
		C980.1,339.7,976.9,346.5,976.9,353z"/>
	<path class="st3" d="M1011.8,347c0-4.4-0.1-7.9-0.3-11.1h5.6l0.3,5.8h0.1c2.5-4.2,6.6-6.6,12.1-6.6c8.2,0,14.4,7,14.4,17.3
		c0,12.3-7.5,18.3-15.5,18.3c-4.5,0-8.5-2-10.5-5.4h-0.1v18.5h-6.1V347z M1017.9,356.1c0,0.9,0.1,1.8,0.3,2.5
		c1.1,4.3,4.9,7.3,9.3,7.3c6.6,0,10.4-5.4,10.4-13.2c0-6.8-3.6-12.7-10.1-12.7c-4.2,0-8.2,3-9.4,7.7c-0.2,0.8-0.4,1.7-0.4,2.5V356.1
		z"/>
	<path class="st3" d="M1055.3,354c0.1,8.4,5.5,11.8,11.7,11.8c4.4,0,7.1-0.8,9.4-1.8l1.1,4.4c-2.2,1-5.9,2.1-11.3,2.1
		c-10.5,0-16.8-6.9-16.8-17.2c0-10.3,6.1-18.4,16-18.4c11.1,0,14.1,9.8,14.1,16.1c0,1.3-0.1,2.3-0.2,2.9H1055.3z M1073.5,349.6
		c0.1-3.9-1.6-10.1-8.6-10.1c-6.3,0-9,5.8-9.5,10.1H1073.5z"/>
	<path class="st3" d="M1087.2,346.5c0-4-0.1-7.5-0.3-10.6h5.4l0.2,6.7h0.3c1.5-4.6,5.3-7.5,9.4-7.5c0.7,0,1.2,0.1,1.8,0.2v5.8
		c-0.6-0.1-1.3-0.2-2.1-0.2c-4.4,0-7.5,3.3-8.3,8c-0.1,0.8-0.3,1.8-0.3,2.9V370h-6.1V346.5z"/>
</g>
</svg>
