<svg id="6c884645-0cfc-4bcd-9dee-c3da9ad599ec" data-name="Layer 1" xmlns="http://www.w3.org/2000/svg" xmlns:xlink="http://www.w3.org/1999/xlink" viewBox="0 0 66.9 105.93"><defs><style>.\38 7f92939-fb86-4bc8-9daf-510fd8e930c8,.bcb38d6c-417c-418c-9b82-85e3d10bfb82{fill:none;stroke-width:2px;}.\33 7ebe3ef-1ee9-48f4-8996-87ffe2a2e9a7,.\34 b3550c2-3f69-4298-90b3-e87071db1475,.\38 7f92939-fb86-4bc8-9daf-510fd8e930c8{stroke:#4a5b1f;}.\33 7ebe3ef-1ee9-48f4-8996-87ffe2a2e9a7,.\34 b3550c2-3f69-4298-90b3-e87071db1475,.\38 7f92939-fb86-4bc8-9daf-510fd8e930c8,.bcb38d6c-417c-418c-9b82-85e3d10bfb82{stroke-miterlimit:10;}.\33 7ebe3ef-1ee9-48f4-8996-87ffe2a2e9a7{fill:url(#e819ef79-b767-4a97-8747-f55c4c11f75c);}.bcb38d6c-417c-418c-9b82-85e3d10bfb82{stroke:#08060c;}.\34 b3550c2-3f69-4298-90b3-e87071db1475{fill:#a0c13b;}</style><linearGradient id="e819ef79-b767-4a97-8747-f55c4c11f75c" x1="33.15" y1="48.15" x2="33.15" y2="7.09" gradientUnits="userSpaceOnUse"><stop offset="0" stop-color="#a0c13b"/><stop offset="0.5" stop-color="#4a5b1f"/><stop offset="0.5" stop-color="#a0c13b"/><stop offset="1" stop-color="#4a5b1f"/></linearGradient></defs><title>riad-kilani-logo-icon</title><circle id="612ef35c-4c3c-42c2-809c-9aadec2a3466" data-name="infinite" class="87f92939-fb86-4bc8-9daf-510fd8e930c8" cx="33.43" cy="26.05" r="25.05"/><path class="37ebe3ef-1ee9-48f4-8996-87ffe2a2e9a7" d="M44,21.16C46.3,19,56.69,10.33,59.09,9a27.93,27.93,0,0,1,3.69-.67l.34-1.17c-1.9.11-4.47.22-6.09.22-2.18,0-6.14-.11-8.49-.22l.22,1.17a38.26,38.26,0,0,1,4.13.78C51.27,11.89,38.59,22.73,35,25.91V24.18c0-4.58.06-13.24.28-15,1.28-.22,5-.67,5.7-.78v0l.22,0,.17-1.17L29.27,7.09c-2.17,0-4.57,0-6.9.12l-.2,0v0a29.35,29.35,0,0,0-8.66,1.43c-3,1.17-4.8,3.3-4.8,6.37,0,3.52,3.58,8.16,7.88,10.56C16,27,7,41.62,1.17,47.76l2.46.39C7.54,46.36,22.4,29.21,23.29,28c2.08.16,4.31.33,5.3.33,0,7.25-.12,13.84-.27,16.27-1,.28-5.9.93-5.93.93l-.22,1.17c1.62-.11,6.93-.22,9.55-.22,3,0,8.94.11,10,.22l-.11-1.17c-.11,0-3.26-.41-5-.67a8,8,0,0,1-1.41-.39C35,42.45,35,34.63,35,29.77V28.43c.73-.67,2.46-2.12,3.52-2.9C40,27.2,58.87,46.47,63.23,48.15l1.9-.61C62.22,44.85,46.13,24.63,44,21.16ZM21.84,25.58a9.41,9.41,0,0,1-6.37-9c0-3.23,2.64-7.09,10.26-7.81,1,.14,2,.28,2.58.38.17,1.51.28,9.27.28,14.52v3A19.28,19.28,0,0,1,21.84,25.58Z" transform="translate(0.32 -0.79)"/><circle id="2135f86e-aea3-4476-abdc-128339debc15" data-name="infinite" class="bcb38d6c-417c-418c-9b82-85e3d10bfb82" cx="33.43" cy="79.51" r="25.42"/><path class="4b3550c2-3f69-4298-90b3-e87071db1475" d="M44.12,74.55c2.38-2.15,12.93-11,15.37-12.3a28.35,28.35,0,0,1,3.74-.68l.34-1.19c-1.93.11-4.54.23-6.18.23-2.21,0-6.24-.11-8.62-.23L49,61.56a38.83,38.83,0,0,1,4.2.79c-1.64,2.78-14.51,13.78-18.2,17V77.61c0-4.65.06-13.44.28-15.25,1.3-.23,5.1-.68,5.78-.79v0l.23,0,.17-1.19-12.25-.06c-2.2,0-4.63,0-7,.13l-.21,0v0a29.79,29.79,0,0,0-8.79,1.45c-3,1.19-4.88,3.35-4.88,6.46,0,3.57,3.63,8.28,8,10.72C15.72,80.45,6.59,95.3.69,101.54l2.49.4c4-1.81,19.05-19.22,20-20.41,2.11.17,4.38.33,5.38.34,0,7.36-.12,14-.27,16.51-1,.28-6,.94-6,.94L22,100.51c1.64-.11,7-.23,9.7-.23,3.06,0,9.07.11,10.15.23l-.11-1.19c-.11,0-3.3-.41-5-.68a8.07,8.07,0,0,1-1.43-.4c-.23-2.1-.28-10-.28-15V81.92c.74-.68,2.49-2.15,3.57-2.95,1.59,1.7,20.7,21.26,25.12,23l1.93-.62C62.66,98.59,46.33,78.06,44.12,74.55ZM21.67,79a9.55,9.55,0,0,1-6.46-9.13c0-3.28,2.68-7.2,10.41-7.93,1,.14,2,.28,2.62.38.17,1.53.28,9.41.28,14.74v3A19.57,19.57,0,0,1,21.67,79Z" transform="translate(0.32 -0.79)"/></svg>